<?xml version="1.0" encoding="utf-8"?>
<!-- Generator: Adobe Illustrator 27.4.1, SVG Export Plug-In . SVG Version: 6.00 Build 0)  -->
<svg version="1.1" id="Layer_1" xmlns="http://www.w3.org/2000/svg" xmlns:xlink="http://www.w3.org/1999/xlink" x="0px" y="0px"
	 viewBox="0 0 287 774.9" style="enable-background:new 0 0 287 774.9;" xml:space="preserve">
<style type="text/css">
	.st0{fill:#C9BA94;}
	.st1{fill:#CE7B56;}
</style>
<g>
	<g>
		<path class="st0" d="M242.7,560.6c-2.9,2.3,2.8,0.7,2.5-1.9c-0.3-1.9,1.1-3.9,6-9c17.8-21,24.6-29.7,31.4-57.6
			c9.4-31.9-13.4-48.3-39.1-72.3C170.9,353.4,98.2,284.6,23.1,217.5C2,198.2,2,198.2,2,482.9C6.6,774.7-8.5,779.2,20.6,750.2
			c0.3-0.5,2.3-0.9,4.5-0.9c7,0.9,1.2-6.2,8.8-7c3.4,0.2,0.7-4.5,4.6-4c1.8,0,2.5-0.5,2.5-2c-0.3-3.1,4.3-1,4-4
			c-0.1-2.8,3.3-2.8,4.3-4.7c0.4-0.7,1.5-1.3,2.2-1.3c0.8,0,1.5-0.6,1.5-1.2c0-0.7,5.9-7,13.2-14c12.2-11.8,13.6-12.8,17-12.8
			c2.1,0,3.8,0.2,3.8,0.5"/>
		<path class="st0" d="M88.2,298.3c0.9,0-0.1-19.8-0.2-36c-0.1-18.7,2.5-42.5,6.1-56.5c9.4-43.1,36.1-74.4,67.4-98.4
			c36.6-33.1,77.4-69.3,112.3-99.9c8.4-7.3,10.9-8.7,10.9-8.7l1.3,110.5l1,382.1"/>
		<path class="st0" d="M89,694.3c-0.8-4.7,4.4-1.6,5-4.5c-0.1-3.6,7.1-8.6,10-5.7c-1,2-9.9,9.1-11.5,11C89.4,698,89,697.9,89,694.3z
			"/>
		<path class="st0" d="M106,679.7c0-2.4,1.9-4.7,10.7-13.1c9.7-9.4,11-10.3,14.5-10.3"/>
		<path class="st0" d="M136,653.4c-0.3-4.2,2.3-2.1,3-4.4c0.9-5.5,7.7-3.7,8-6.2c0-0.8,0.9-1.5,2-1.5c1.2,0,2-0.7,2-1.6
			c0-2.6,10-12.4,12.7-12.4c1.3,0,2.3-0.6,2.3-1.3c0-2.3,5.5-6.7,8.3-6.7c1.5,0,2.7,0.3,2.7,0.8c0,1.4-8.8,9.2-10.4,9.2
			c-0.9,0-1.6,0.7-1.6,1.5c-0.3,2.2-3.8,3-8.4,8c-7.8,7.8-6.1,4.4-12.7,10.8C136.2,656.9,136,657,136,653.4z"/>
		<path class="st0" d="M185,609.7L185,609.7c-0.4-3.6,3.6-2.6,4.3-5.5c0.2-3,6.1-0.7,5.7-3.9c0-1.1,0.7-2,1.5-2s1.5-0.6,1.5-1.4
			c0-0.7,5.7-6.8,12.7-13.5c10-9.5,13.3-12.1,15.5-12.1c1.8,0,2.8-0.5,2.8-1.5c-0.6-1.9,5.8-1.7,6-0.9"/>
	</g>
	<g>
		<path d="M0,413.8c0-147.2,0-222.5,0-222.5c13.6,10.7,45.4,41.6,54.6,49c36.4,32.5,86.7,79.1,121.9,112
			c23.1,21.6,45.1,41.3,65.8,60.9c5.7,4.7,0.9,5.1-5,11.2c-37.4,33.1-80.6,73.5-120.3,108.9c-18.9,17.2-40.1,36.2-58.8,53
			C41.8,599.8,28,613.6,9.5,630.5c-3.7,3.6-8.2,5.8-9.5,5.8C0,636.3,0,636.3,0,413.8z"/>
	</g>
	<g>
		<path class="st1" d="M0,774.9c0,0,0-19.8,0-70.4l0,0c0-70.8,0-70.8,0-70.8c1.2-0.2,30.8-27.2,30.8-27.2l25.6-22.6
			c0.3,0,6.3-6,6.3-6l41.7-37.4l24.3-22.1l76.1-68.9l30.4-27.5c0,0,8-6.5,7-9.1c25.1,22.8,47,41.6,44.3,82.8
			c-1.8,27.1-35.4,61.4-57.8,79.2c0,0-61.7,56.7-71,63.3"/>
		<path class="st1" d="M116.4,672.6"/>
	</g>
</g>
</svg>
